<svg id="logo-line" xmlns="http://www.w3.org/2000/svg" width="204.18" height="24.64" viewBox="0 0 204.18 24.64"><title>logo-line</title><path d="M42.85,24.89a7.27,7.27,0,0,1,7.27-7.14A7.44,7.44,0,0,1,54.7,19.3a1.17,1.17,0,0,1,.19,1.58,1.15,1.15,0,0,1-1.58.22A5,5,0,0,0,50.12,20a5.26,5.26,0,0,0-3.57,1.43,4.83,4.83,0,0,0,0,6.9,5.25,5.25,0,0,0,3.57,1.42,4.93,4.93,0,0,0,3.19-1.09,1.2,1.2,0,0,1,1.58.22,1.18,1.18,0,0,1-.19,1.59A7.43,7.43,0,0,1,50.12,32,7.24,7.24,0,0,1,42.85,24.89Z" transform="translate(-10.93 -9.58)" style="fill:#5ab8ab"/><path d="M60.72,30.93A1.09,1.09,0,0,1,59.61,32a1.13,1.13,0,0,1-1-.81,1.18,1.18,0,0,1,0-.28V19.24a1.1,1.1,0,0,1,2.2,0v3.45a4.48,4.48,0,0,1,2.12-.58,4.34,4.34,0,0,1,4.32,4.34v4.48a1.09,1.09,0,1,1-2.18,0V26.45a2.13,2.13,0,1,0-4.26,0Z" transform="translate(-10.93 -9.58)" style="fill:#5ab8ab"/><path d="M70,27.07a4.91,4.91,0,0,1,4.84-5,4.75,4.75,0,0,1,4.77,4.6v.1a.55.55,0,0,1,0,.18,1,1,0,0,1-1,.79h-6.3a2.66,2.66,0,0,0,.67,1.31,3.11,3.11,0,0,0,1.91.89,3.23,3.23,0,0,0,2.06-.5,1.13,1.13,0,0,1,1.48-.06.9.9,0,0,1,0,1.29A5,5,0,0,1,74.81,32,4.92,4.92,0,0,1,70,27.07Zm2.16-1h5.61A3.22,3.22,0,0,0,74.81,24,2.76,2.76,0,0,0,72.13,26.1Z" transform="translate(-10.93 -9.58)" style="fill:#5ab8ab"/><path d="M88.42,23.16a1.06,1.06,0,0,1-1,1.05,1.88,1.88,0,0,0-1.19.38,3,3,0,0,0-.91.95,5.73,5.73,0,0,0-.81,1.67V31A1.08,1.08,0,0,1,83.37,32,1,1,0,0,1,82.32,31V23.16a1,1,0,0,1,1.05-1,1.07,1.07,0,0,1,1.09,1v.14a2.16,2.16,0,0,1,.41-.39,4.34,4.34,0,0,1,2.5-.78A1,1,0,0,1,88.42,23.16Z" transform="translate(-10.93 -9.58)" style="fill:#5ab8ab"/><path d="M89.82,27.09a5,5,0,0,1,5-5A5.24,5.24,0,0,1,98,23.2a1.11,1.11,0,0,1,.22,1.47,1.06,1.06,0,0,1-1.49.2,3.13,3.13,0,0,0-1.88-.64,2.85,2.85,0,1,0,0,5.69,3.24,3.24,0,0,0,1.88-.63,1.09,1.09,0,0,1,1.49.21A1.11,1.11,0,0,1,98,31,5.48,5.48,0,0,1,94.86,32,5,5,0,0,1,89.82,27.09Z" transform="translate(-10.93 -9.58)" style="fill:#5ab8ab"/><path d="M104,30.93A1.08,1.08,0,0,1,102.92,32a1.14,1.14,0,0,1-1-.81,1.18,1.18,0,0,1,0-.28V19.24a1.1,1.1,0,0,1,2.2,0v3.45a4.51,4.51,0,0,1,2.12-.58,4.34,4.34,0,0,1,4.32,4.34v4.48a1.09,1.09,0,0,1-2.18,0V26.45a2.13,2.13,0,1,0-4.26,0Z" transform="translate(-10.93 -9.58)" style="fill:#5ab8ab"/><path d="M113.28,27.07a4.91,4.91,0,0,1,4.84-5,4.73,4.73,0,0,1,4.77,4.6v.1a.55.55,0,0,1,0,.18,1,1,0,0,1-1,.79h-6.3a2.59,2.59,0,0,0,.68,1.31,3.08,3.08,0,0,0,1.9.89,3.23,3.23,0,0,0,2.06-.5,1.14,1.14,0,0,1,1.49-.06.92.92,0,0,1,0,1.29A5,5,0,0,1,118.12,32,4.92,4.92,0,0,1,113.28,27.07Zm2.16-1h5.61a3.22,3.22,0,0,0-2.93-2.1A2.77,2.77,0,0,0,115.44,26.1Z" transform="translate(-10.93 -9.58)" style="fill:#5ab8ab"/><path d="M134.33,26.22V31A1.06,1.06,0,0,1,133.28,32,1.08,1.08,0,0,1,132.21,31V26.22a2,2,0,0,0-4,.05V31s0,.1,0,.14v.06s0,.08-.06.12v.1a1.17,1.17,0,0,1-1,.63l-.2,0a1.08,1.08,0,0,1-.86-1V23.18a1.06,1.06,0,0,1,1.06-1.07,1,1,0,0,1,1,.6,4.15,4.15,0,0,1,5.23.77,4.08,4.08,0,0,1,3.11-1.37,4.14,4.14,0,0,1,4.12,4.16V31a1.06,1.06,0,0,1-1,1.05A1.07,1.07,0,0,1,138.39,31v-4.7a2,2,0,0,0-2-2A2.06,2.06,0,0,0,134.33,26.22Z" transform="translate(-10.93 -9.58)" style="fill:#8e8a89"/><path d="M145.8,30.57a5,5,0,0,1-1.37-3.48,5.12,5.12,0,0,1,1.37-3.47,4.63,4.63,0,0,1,3.41-1.51,4.4,4.4,0,0,1,3.31,1.51,5,5,0,0,1,1.38,3.47,4.79,4.79,0,0,1-1.38,3.48,4.37,4.37,0,0,1-3.31,1.51A4.6,4.6,0,0,1,145.8,30.57Zm.79-3.48a3.2,3.2,0,0,0,.72,2.1,2.68,2.68,0,0,0,1.9.73,2.61,2.61,0,0,0,1.82-.73,3,3,0,0,0,.77-2.1A2.93,2.93,0,0,0,151,25a2.77,2.77,0,0,0-1.82-.76,2.84,2.84,0,0,0-1.9.76A3.09,3.09,0,0,0,146.59,27.09Z" transform="translate(-10.93 -9.58)" style="fill:#8e8a89"/><path d="M165.53,26.23V31a1,1,0,0,1-1,1.05A1.07,1.07,0,0,1,163.45,31V26.23a2,2,0,0,0-2.06-2,2,2,0,0,0-2,2V31a.4.4,0,0,1,0,.2,1.08,1.08,0,0,1-1.05.85,1,1,0,0,1-1-1.05V23.16a1,1,0,0,1,1-1.05,1.07,1.07,0,0,1,1,.62,4,4,0,0,1,2.1-.62A4.15,4.15,0,0,1,165.53,26.23Z" transform="translate(-10.93 -9.58)" style="fill:#8e8a89"/><path d="M177.68,26.23V31a1,1,0,0,1-1,1.05A1.07,1.07,0,0,1,175.6,31V26.23a2,2,0,0,0-2.06-2,2,2,0,0,0-2,2V31a.4.4,0,0,1,0,.2,1.09,1.09,0,0,1-1.05.85A1,1,0,0,1,169.42,31V23.16a1,1,0,0,1,1.05-1.05,1.08,1.08,0,0,1,1,.62,3.92,3.92,0,0,1,2.1-.62A4.15,4.15,0,0,1,177.68,26.23Z" transform="translate(-10.93 -9.58)" style="fill:#d02a17"/><path d="M183.72,19.64a1.07,1.07,0,0,1-1.07,1.09,1.09,1.09,0,0,1-1.07-1.09v-.42a1.07,1.07,0,0,1,1.07-1.07,1.05,1.05,0,0,1,1.07,1.07Zm0,3.58V31A1,1,0,0,1,182.65,32,1.06,1.06,0,0,1,181.58,31V23.22a1.06,1.06,0,0,1,1.07-1.09A1,1,0,0,1,183.72,23.22Z" transform="translate(-10.93 -9.58)" style="fill:#d02a17"/><path d="M196.11,31a1.07,1.07,0,0,1-2.12.22,4.91,4.91,0,1,1-2.7-9.06A4.69,4.69,0,0,1,194,23V19.22a1.08,1.08,0,0,1,2.16,0V31Zm-4.82-6.68a2.55,2.55,0,0,0-1.86.82,2.88,2.88,0,0,0,0,4,2.57,2.57,0,0,0,1.86.81,2.52,2.52,0,0,0,1.86-.81,2.85,2.85,0,0,0,0-4A2.5,2.5,0,0,0,191.29,24.27Z" transform="translate(-10.93 -9.58)" style="fill:#d02a17"/><path d="M198.58,30.89a.6.6,0,1,1,0,1.19.6.6,0,0,1,0-1.19Z" transform="translate(-10.93 -9.58)" style="fill:#8e8a89"/><path d="M199.56,30a2,2,0,0,1,2-2,2.06,2.06,0,0,1,1.27.44.44.44,0,0,1,.09.59.43.43,0,0,1-.6.08,1.29,1.29,0,0,0-.76-.26A1.18,1.18,0,0,0,200.41,30a1.17,1.17,0,0,0,1.18,1.14,1.3,1.3,0,0,0,.76-.25.43.43,0,0,1,.6.09.44.44,0,0,1-.09.59,2.24,2.24,0,0,1-1.27.42A2,2,0,0,1,199.56,30Z" transform="translate(-10.93 -9.58)" style="fill:#8e8a89"/><path d="M204.65,31.44A2,2,0,0,1,204.1,30a2.1,2.1,0,0,1,.55-1.4A1.87,1.87,0,0,1,206,28a1.79,1.79,0,0,1,1.34.6,2,2,0,0,1,.56,1.4,1.94,1.94,0,0,1-.56,1.41A1.79,1.79,0,0,1,206,32,1.87,1.87,0,0,1,204.65,31.44ZM205,30a1.27,1.27,0,0,0,.29.85,1.07,1.07,0,0,0,.76.29,1.06,1.06,0,0,0,.74-.29,1.23,1.23,0,0,0,.31-.85,1.2,1.2,0,0,0-.31-.83,1.09,1.09,0,0,0-1.5,0A1.23,1.23,0,0,0,205,30Z" transform="translate(-10.93 -9.58)" style="fill:#8e8a89"/><path d="M212.61,29.68V31.6a.42.42,0,0,1-.42.42.44.44,0,0,1-.43-.42V29.68a.82.82,0,0,0-1.63,0v2s0,0,0,.05v0a.46.46,0,0,1-.4.25h-.08a.44.44,0,0,1-.35-.41V29.7h0V28.46a.43.43,0,0,1,.43-.43.38.38,0,0,1,.38.24,1.68,1.68,0,0,1,2.11.31,1.63,1.63,0,0,1,1.25-.55,1.67,1.67,0,0,1,1.67,1.67v1.9a.43.43,0,0,1-.86,0V29.7a.82.82,0,0,0-.81-.82A.84.84,0,0,0,212.61,29.68Z" transform="translate(-10.93 -9.58)" style="fill:#8e8a89"/><circle cx="11.74" cy="13.97" r="6.01" style="fill:#fff"/><path d="M22.67,17.56a6,6,0,0,0-6,6,6.11,6.11,0,0,0,.57,2.56,11.38,11.38,0,0,0,1.56-2c2.5-4,5.1-3.11,5.1-3.11a4.32,4.32,0,0,1,2.39,1.7,6.23,6.23,0,0,1,1.12.88s.27.16,0,.33a8.08,8.08,0,0,1-1.25.4A15.7,15.7,0,0,1,25,29.12a6,6,0,0,0-2.34-11.56Z" transform="translate(-10.93 -9.58)" style="fill:none"/><path d="M27.39,23.91c.27-.17,0-.33,0-.33a6.23,6.23,0,0,0-1.12-.88s0,.67-.13,1.61A8.08,8.08,0,0,0,27.39,23.91Z" transform="translate(-10.93 -9.58)" style="fill:#e6c952"/><path d="M26.27,22.7A4.32,4.32,0,0,0,23.88,21s-2.6-.93-5.1,3.11a11.38,11.38,0,0,1-1.56,2,6,6,0,0,0,7.79,3,15.7,15.7,0,0,0,1.13-4.81C26.24,23.37,26.27,22.7,26.27,22.7Zm-2.81,2.91a1.47,1.47,0,1,1,1.47-1.47A1.47,1.47,0,0,1,23.46,25.61Z" transform="translate(-10.93 -9.58)" style="fill:#d02a17"/><path d="M23.46,22.67a1.47,1.47,0,1,0,1.47,1.47A1.47,1.47,0,0,0,23.46,22.67Zm.62,1.54a.49.49,0,1,1,.49-.48A.49.49,0,0,1,24.08,24.21Z" transform="translate(-10.93 -9.58)" style="fill:#fff"/><path d="M24.08,23.24a.49.49,0,1,0,.49.49A.49.49,0,0,0,24.08,23.24Z" transform="translate(-10.93 -9.58)" style="fill:#5ab8ab"/><path d="M22.67,29.56a6,6,0,1,1,0-12h0v-8a2.34,2.34,0,0,0-1.4.51l-9.84,7.32a1.35,1.35,0,0,0,.59,2.43,10.72,10.72,0,0,0,1.11.05V32.28A1.88,1.88,0,0,0,15,34.22h7.74V29.56Z" transform="translate(-10.93 -9.58)" style="fill:#5ab8ab"/><path d="M34,17.41l-9.84-7.32a2.35,2.35,0,0,0-1.41-.51v8a6,6,0,0,1,0,12v4.66h7.75a1.88,1.88,0,0,0,1.8-1.94V19.89a10.72,10.72,0,0,0,1.11-.05A1.36,1.36,0,0,0,34,17.41Z" transform="translate(-10.93 -9.58)" style="fill:#3f9088"/></svg>